<?xml version="1.0" encoding="UTF-8"?>
<!DOCTYPE svg PUBLIC "-//W3C//DTD SVG 1.1//EN"
    "http://www.w3.org/Graphics/SVG/1.1/DTD/svg11.dtd">
<svg xmlns="http://www.w3.org/2000/svg" height="400.0000" stroke-opacity="1" viewBox="0 0 400 400" font-size="1" width="400.0000" xmlns:xlink="http://www.w3.org/1999/xlink" stroke="rgb(0,0,0)" version="1.1">
  <defs>
  </defs>
  <defs>
  </defs>
  <g stroke-linejoin="miter" stroke-opacity="1.0" fill-opacity="0.0" stroke="rgb(0,0,0)" stroke-width="1.6" fill="rgb(0,0,0)" stroke-linecap="butt" stroke-miterlimit="10.0">
    <path d="M 241.4214,200.0000 c 0.0000,-22.8764 -18.5450,-41.4214 -41.4214 -41.4214c -22.8764,-0.0000 -41.4214,18.5450 -41.4214 41.4214c -0.0000,22.8764 18.5450,41.4214 41.4214 41.4214c 22.8764,0.0000 41.4214,-18.5450 41.4214 -41.4214Z"/>
  </g>
  <defs>
  </defs>
  <g stroke-linejoin="miter" stroke-opacity="1.0" fill-opacity="1.0" stroke="rgb(0,0,0)" stroke-width="0.0" fill="rgb(255,0,0)" stroke-linecap="butt" stroke-miterlimit="10.0">
    <path d="M 201.6569,200.0000 c 0.0000,-0.9151 -0.7418,-1.6569 -1.6569 -1.6569c -0.9151,-0.0000 -1.6569,0.7418 -1.6569 1.6569c -0.0000,0.9151 0.7418,1.6569 1.6569 1.6569c 0.9151,0.0000 1.6569,-0.7418 1.6569 -1.6569Z"/>
  </g>
  <defs>
  </defs>
  <g stroke-linejoin="miter" stroke-opacity="1.0" fill-opacity="0.0" stroke="rgb(0,0,0)" stroke-width="1.6" fill="rgb(0,0,0)" stroke-linecap="butt" stroke-miterlimit="10.0">
    <path d="M 400.0000,400.0000 l -0.0000,-400.0000 h -400.0000 l -0.0000,400.0000 Z"/>
  </g>
  <defs>
  </defs>
  <g stroke-linejoin="miter" stroke-opacity="1.0" fill-opacity="0.0" stroke="rgb(0,0,0)" stroke-width="1.6" fill="rgb(0,0,0)" stroke-linecap="butt" stroke-miterlimit="10.0">
    <path d="M 400.0000,300.0000 c 0.0000,-55.2285 -44.7715,-100.0000 -100.0000 -100.0000c -55.2285,-0.0000 -100.0000,44.7715 -100.0000 100.0000c -0.0000,55.2285 44.7715,100.0000 100.0000 100.0000c 55.2285,0.0000 100.0000,-44.7715 100.0000 -100.0000Z"/>
  </g>
  <defs>
  </defs>
  <g stroke-linejoin="miter" stroke-opacity="1.0" fill-opacity="0.0" stroke="rgb(0,0,0)" stroke-width="1.6" fill="rgb(0,0,0)" stroke-linecap="butt" stroke-miterlimit="10.0">
    <path d="M 200.0000,300.0000 c 0.0000,-55.2285 -44.7715,-100.0000 -100.0000 -100.0000c -55.2285,-0.0000 -100.0000,44.7715 -100.0000 100.0000c -0.0000,55.2285 44.7715,100.0000 100.0000 100.0000c 55.2285,0.0000 100.0000,-44.7715 100.0000 -100.0000Z"/>
  </g>
  <defs>
  </defs>
  <g stroke-linejoin="miter" stroke-opacity="1.0" fill-opacity="0.0" stroke="rgb(0,0,0)" stroke-width="1.6" fill="rgb(0,0,0)" stroke-linecap="butt" stroke-miterlimit="10.0">
    <path d="M 400.0000,100.0000 c 0.0000,-55.2285 -44.7715,-100.0000 -100.0000 -100.0000c -55.2285,-0.0000 -100.0000,44.7715 -100.0000 100.0000c -0.0000,55.2285 44.7715,100.0000 100.0000 100.0000c 55.2285,0.0000 100.0000,-44.7715 100.0000 -100.0000Z"/>
  </g>
  <defs>
  </defs>
  <g stroke-linejoin="miter" stroke-opacity="1.0" fill-opacity="1.0" stroke="rgb(0,0,0)" stroke-width="0.0" fill="rgb(255,0,0)" stroke-linecap="butt" stroke-miterlimit="10.0">
    <path d="M 304.0000,100.0000 c 0.0000,-2.2091 -1.7909,-4.0000 -4.0000 -4.0000c -2.2091,-0.0000 -4.0000,1.7909 -4.0000 4.0000c -0.0000,2.2091 1.7909,4.0000 4.0000 4.0000c 2.2091,0.0000 4.0000,-1.7909 4.0000 -4.0000Z"/>
  </g>
  <defs>
  </defs>
  <g stroke-linejoin="miter" stroke-opacity="1.0" fill-opacity="0.0" stroke="rgb(0,0,0)" stroke-width="1.6" fill="rgb(0,0,0)" stroke-linecap="butt" stroke-miterlimit="10.0">
    <path d="M 200.0000,100.0000 c 0.0000,-55.2285 -44.7715,-100.0000 -100.0000 -100.0000c -55.2285,-0.0000 -100.0000,44.7715 -100.0000 100.0000c -0.0000,55.2285 44.7715,100.0000 100.0000 100.0000c 55.2285,0.0000 100.0000,-44.7715 100.0000 -100.0000Z"/>
  </g>
</svg>